<svg width="16" height="15" viewBox="0 0 16 15" fill="none" xmlns="http://www.w3.org/2000/svg">
<g opacity="0.7">
<path d="M8.15972 0.9375C4.42702 0.9375 1.40042 3.87598 1.40042 7.5C1.40042 11.124 4.42702 14.0625 8.15972 14.0625C11.8924 14.0625 14.919 11.124 14.919 7.5C14.919 3.87598 11.8924 0.9375 8.15972 0.9375ZM8.64253 10.6641C8.64253 10.7285 8.58821 10.7812 8.52183 10.7812H7.79762C7.73123 10.7812 7.67691 10.7285 7.67691 10.6641V6.67969C7.67691 6.61523 7.73123 6.5625 7.79762 6.5625H8.52183C8.58821 6.5625 8.64253 6.61523 8.64253 6.67969V10.6641ZM8.15972 5.625C7.97021 5.62124 7.78976 5.54551 7.6571 5.41406C7.52444 5.28261 7.45014 5.10591 7.45014 4.92188C7.45014 4.73784 7.52444 4.56114 7.6571 4.42969C7.78976 4.29824 7.97021 4.22251 8.15972 4.21875C8.34923 4.22251 8.52968 4.29824 8.66234 4.42969C8.795 4.56114 8.8693 4.73784 8.8693 4.92188C8.8693 5.10591 8.795 5.28261 8.66234 5.41406C8.52968 5.54551 8.34923 5.62124 8.15972 5.625Z" fill="#3C39B2"/>
</g>
</svg>
