<svg width="17" height="15" viewBox="0 0 17 15" fill="none" xmlns="http://www.w3.org/2000/svg">
<g opacity="0.7">
<path d="M8.33621 0.9375C4.60351 0.9375 1.57691 3.87598 1.57691 7.5C1.57691 11.124 4.60351 14.0625 8.33621 14.0625C12.0689 14.0625 15.0955 11.124 15.0955 7.5C15.0955 3.87598 12.0689 0.9375 8.33621 0.9375ZM8.81902 10.6641C8.81902 10.7285 8.7647 10.7812 8.69832 10.7812H7.97411C7.90772 10.7812 7.8534 10.7285 7.8534 10.6641V6.67969C7.8534 6.61523 7.90772 6.5625 7.97411 6.5625H8.69832C8.7647 6.5625 8.81902 6.61523 8.81902 6.67969V10.6641ZM8.33621 5.625C8.1467 5.62124 7.96625 5.54551 7.83359 5.41406C7.70093 5.28261 7.62663 5.10591 7.62663 4.92188C7.62663 4.73784 7.70093 4.56114 7.83359 4.42969C7.96625 4.29824 8.1467 4.22251 8.33621 4.21875C8.52572 4.22251 8.70617 4.29824 8.83883 4.42969C8.97149 4.56114 9.04579 4.73784 9.04579 4.92188C9.04579 5.10591 8.97149 5.28261 8.83883 5.41406C8.70617 5.54551 8.52572 5.62124 8.33621 5.625Z" fill="#3C39B2"/>
</g>
</svg>
