<svg width="18" height="18" viewBox="0 0 18 18" fill="none" xmlns="http://www.w3.org/2000/svg">
<g clip-path="url(#clip0_0_63)">
<path d="M8.94394 0.5625C5.28769 0.5625 2.16582 2.925 1.0127 6.1875H16.9314C15.7502 2.925 12.6283 0.5625 8.94394 0.5625Z" fill="#F2B200"/>
<path d="M8.94394 17.4375C12.6283 17.4375 15.7502 15.1031 16.9033 11.8125H1.0127C2.16582 15.1031 5.28769 17.4375 8.94394 17.4375Z" fill="#83BF4F"/>
<path d="M1.0123 6.1875C0.70293 7.05937 0.53418 8.01562 0.53418 9C0.53418 9.98438 0.70293 10.9406 1.0123 11.8125H16.9311C17.2404 10.9406 17.4092 9.98438 17.4092 9C17.4092 8.01562 17.2404 7.05937 16.9311 6.1875H1.0123Z" fill="white"/>
<path d="M8.94385 11.25C10.1865 11.25 11.1938 10.2426 11.1938 9C11.1938 7.75736 10.1865 6.75 8.94385 6.75C7.70121 6.75 6.69385 7.75736 6.69385 9C6.69385 10.2426 7.70121 11.25 8.94385 11.25Z" fill="#428BC1"/>
<path d="M8.94385 10.9688C10.0312 10.9688 10.9126 10.0873 10.9126 9C10.9126 7.91269 10.0312 7.03125 8.94385 7.03125C7.85654 7.03125 6.9751 7.91269 6.9751 9C6.9751 10.0873 7.85654 10.9688 8.94385 10.9688Z" fill="white"/>
<path d="M8.21228 7.31249C8.28995 7.31249 8.35291 7.24953 8.35291 7.17187C8.35291 7.0942 8.28995 7.03124 8.21228 7.03124C8.13462 7.03124 8.07166 7.0942 8.07166 7.17187C8.07166 7.24953 8.13462 7.31249 8.21228 7.31249Z" fill="#428BC1"/>
<path d="M7.76233 7.56562C7.83999 7.56562 7.90295 7.50266 7.90295 7.42499C7.90295 7.34733 7.83999 7.28437 7.76233 7.28437C7.68466 7.28437 7.6217 7.34733 7.6217 7.42499C7.6217 7.50266 7.68466 7.56562 7.76233 7.56562Z" fill="#428BC1"/>
<path d="M7.39667 7.93124C7.47433 7.93124 7.53729 7.86828 7.53729 7.79062C7.53729 7.71295 7.47433 7.64999 7.39667 7.64999C7.319 7.64999 7.25604 7.71295 7.25604 7.79062C7.25604 7.86828 7.319 7.93124 7.39667 7.93124Z" fill="#428BC1"/>
<path d="M7.14355 8.38124C7.22122 8.38124 7.28418 8.31828 7.28418 8.24062C7.28418 8.16295 7.22122 8.09999 7.14355 8.09999C7.06589 8.09999 7.00293 8.16295 7.00293 8.24062C7.00293 8.31828 7.06589 8.38124 7.14355 8.38124Z" fill="#428BC1"/>
<path d="M7.00293 8.88749C7.08059 8.88749 7.14355 8.82453 7.14355 8.74687C7.14355 8.6692 7.08059 8.60624 7.00293 8.60624C6.92526 8.60624 6.8623 8.6692 6.8623 8.74687C6.8623 8.82453 6.92526 8.88749 7.00293 8.88749Z" fill="#428BC1"/>
<path d="M7.00293 9.39374C7.08059 9.39374 7.14355 9.33078 7.14355 9.25312C7.14355 9.17545 7.08059 9.11249 7.00293 9.11249C6.92526 9.11249 6.8623 9.17545 6.8623 9.25312C6.8623 9.33078 6.92526 9.39374 7.00293 9.39374Z" fill="#428BC1"/>
<path d="M7.14355 9.89999C7.22122 9.89999 7.28418 9.83703 7.28418 9.75937C7.28418 9.6817 7.22122 9.61874 7.14355 9.61874C7.06589 9.61874 7.00293 9.6817 7.00293 9.75937C7.00293 9.83703 7.06589 9.89999 7.14355 9.89999Z" fill="#428BC1"/>
<path d="M7.39667 10.35C7.47433 10.35 7.53729 10.287 7.53729 10.2094C7.53729 10.1317 7.47433 10.0687 7.39667 10.0687C7.319 10.0687 7.25604 10.1317 7.25604 10.2094C7.25604 10.287 7.319 10.35 7.39667 10.35Z" fill="#428BC1"/>
<path d="M7.76233 10.7156C7.83999 10.7156 7.90295 10.6527 7.90295 10.575C7.90295 10.4973 7.83999 10.4344 7.76233 10.4344C7.68466 10.4344 7.6217 10.4973 7.6217 10.575C7.6217 10.6527 7.68466 10.7156 7.76233 10.7156Z" fill="#428BC1"/>
<path d="M8.21228 10.9687C8.28995 10.9687 8.35291 10.9058 8.35291 10.8281C8.35291 10.7505 8.28995 10.6875 8.21228 10.6875C8.13462 10.6875 8.07166 10.7505 8.07166 10.8281C8.07166 10.9058 8.13462 10.9687 8.21228 10.9687Z" fill="#428BC1"/>
<path d="M8.69043 11.0812C8.76809 11.0812 8.83105 11.0183 8.83105 10.9406C8.83105 10.863 8.76809 10.8 8.69043 10.8C8.61276 10.8 8.5498 10.863 8.5498 10.9406C8.5498 11.0183 8.61276 11.0812 8.69043 11.0812Z" fill="#428BC1"/>
<path d="M9.08417 10.9687C9.08417 10.8844 9.14042 10.8281 9.19667 10.8C9.28104 10.8 9.33729 10.8562 9.36542 10.9125C9.36542 10.9969 9.30917 11.0531 9.25292 11.0812C9.14042 11.1094 9.08417 11.0531 9.08417 10.9687Z" fill="#428BC1"/>
<path d="M9.70294 10.9687C9.78061 10.9687 9.84357 10.9058 9.84357 10.8281C9.84357 10.7505 9.78061 10.6875 9.70294 10.6875C9.62528 10.6875 9.56232 10.7505 9.56232 10.8281C9.56232 10.9058 9.62528 10.9687 9.70294 10.9687Z" fill="#428BC1"/>
<path d="M10.153 10.7156C10.2306 10.7156 10.2936 10.6527 10.2936 10.575C10.2936 10.4973 10.2306 10.4344 10.153 10.4344C10.0753 10.4344 10.0123 10.4973 10.0123 10.575C10.0123 10.6527 10.0753 10.7156 10.153 10.7156Z" fill="#428BC1"/>
<path d="M10.5186 10.35C10.5962 10.35 10.6592 10.287 10.6592 10.2094C10.6592 10.1317 10.5962 10.0687 10.5186 10.0687C10.4409 10.0687 10.3779 10.1317 10.3779 10.2094C10.3779 10.287 10.4409 10.35 10.5186 10.35Z" fill="#428BC1"/>
<path d="M10.7717 9.89999C10.8493 9.89999 10.9123 9.83703 10.9123 9.75937C10.9123 9.6817 10.8493 9.61874 10.7717 9.61874C10.694 9.61874 10.631 9.6817 10.631 9.75937C10.631 9.83703 10.694 9.89999 10.7717 9.89999Z" fill="#428BC1"/>
<path d="M10.9123 9.39374C10.99 9.39374 11.0529 9.33078 11.0529 9.25312C11.0529 9.17545 10.99 9.11249 10.9123 9.11249C10.8346 9.11249 10.7717 9.17545 10.7717 9.25312C10.7717 9.33078 10.8346 9.39374 10.9123 9.39374Z" fill="#428BC1"/>
<path d="M10.9123 8.88749C10.8279 8.88749 10.7717 8.83124 10.7435 8.77499C10.7435 8.69062 10.7998 8.63437 10.856 8.60624C10.9404 8.60624 10.9967 8.66249 11.0248 8.71874C11.0529 8.80312 10.9967 8.85937 10.9123 8.88749Z" fill="#428BC1"/>
<path d="M10.7717 8.38124C10.8493 8.38124 10.9123 8.31828 10.9123 8.24062C10.9123 8.16295 10.8493 8.09999 10.7717 8.09999C10.694 8.09999 10.631 8.16295 10.631 8.24062C10.631 8.31828 10.694 8.38124 10.7717 8.38124Z" fill="#428BC1"/>
<path d="M10.5186 7.93124C10.5962 7.93124 10.6592 7.86828 10.6592 7.79062C10.6592 7.71295 10.5962 7.64999 10.5186 7.64999C10.4409 7.64999 10.3779 7.71295 10.3779 7.79062C10.3779 7.86828 10.4409 7.93124 10.5186 7.93124Z" fill="#428BC1"/>
<path d="M10.153 7.56562C10.2306 7.56562 10.2936 7.50266 10.2936 7.42499C10.2936 7.34733 10.2306 7.28437 10.153 7.28437C10.0753 7.28437 10.0123 7.34733 10.0123 7.42499C10.0123 7.50266 10.0753 7.56562 10.153 7.56562Z" fill="#428BC1"/>
<path d="M9.84355 7.22812C9.81543 7.31249 9.73105 7.34062 9.64668 7.31249C9.5623 7.28437 9.53418 7.19999 9.5623 7.11562C9.59043 7.03124 9.6748 7.00312 9.75918 7.03124C9.84355 7.08749 9.87168 7.17187 9.84355 7.22812ZM9.3373 7.05937C9.3373 7.14374 9.25293 7.19999 9.16855 7.17187C9.08418 7.17187 9.02793 7.08749 9.05605 7.00312C9.05605 6.91874 9.14043 6.86249 9.2248 6.89062C9.30918 6.91874 9.36543 7.00312 9.3373 7.05937ZM8.83105 7.03124C8.83105 7.11562 8.7748 7.17187 8.71855 7.19999C8.63418 7.19999 8.57793 7.14374 8.5498 7.08749C8.5498 7.00312 8.60605 6.94687 8.6623 6.91874C8.74668 6.89062 8.83105 6.94687 8.83105 7.03124Z" fill="#428BC1"/>
<path d="M8.94354 9.42187C9.17654 9.42187 9.36542 9.23299 9.36542 8.99999C9.36542 8.767 9.17654 8.57812 8.94354 8.57812C8.71055 8.57812 8.52167 8.767 8.52167 8.99999C8.52167 9.23299 8.71055 9.42187 8.94354 9.42187Z" fill="#428BC1"/>
<path d="M8.94357 7.03124L8.88732 8.24062L8.94357 8.99999L9.02794 8.24062L8.94357 7.03124ZM8.43732 7.08749L8.69044 8.29687L8.94357 8.99999L8.83107 8.24062L8.43732 7.08749Z" fill="#428BC1"/>
<path d="M7.95918 7.28437L8.52168 8.38124L8.94355 8.99999L8.63418 8.29687L7.95918 7.28437ZM7.56543 7.59374L8.38105 8.52187L8.94355 8.99999L8.46543 8.40937L7.56543 7.59374Z" fill="#428BC1"/>
<path d="M7.25604 8.01562L8.26854 8.69062L8.94354 8.99999L8.32479 8.54999L7.25604 8.01562Z" fill="#428BC1"/>
<path d="M7.05917 8.49374L8.21229 8.85936L8.94354 8.99999L8.24042 8.74686L7.05917 8.49374ZM6.97479 8.99999L8.21229 9.05624L8.94354 8.99999L8.21229 8.94374L6.97479 8.99999Z" fill="#428BC1"/>
<path d="M7.0592 9.50624L8.24045 9.25312L8.94358 8.99999L8.21233 9.14062L7.0592 9.50624ZM7.25608 9.98437L8.32483 9.44999L8.94358 8.99999L8.26858 9.30937L7.25608 9.98437Z" fill="#428BC1"/>
<path d="M7.56543 10.3781L8.46543 9.59062L8.94355 8.99999L8.38105 9.47812L7.56543 10.3781ZM7.95918 10.7156L8.63418 9.67499L8.94355 8.99999L8.52168 9.61874L7.95918 10.7156Z" fill="#428BC1"/>
<path d="M8.43732 10.9125L8.83107 9.75937L8.94357 8.99999L8.69044 9.70312L8.43732 10.9125ZM8.94357 10.9687L9.02794 9.75937L8.94357 8.99999L8.88732 9.75937L8.94357 10.9687ZM9.44982 10.9125L9.22482 9.70312L8.94357 8.99999L9.08419 9.75937L9.44982 10.9125Z" fill="#428BC1"/>
<path d="M9.92792 10.7156L9.39354 9.61874L8.94354 8.99999L9.28104 9.70312L9.92792 10.7156ZM10.3498 10.3781L9.53417 9.47812L8.94354 8.99999L9.44979 9.59062L10.3498 10.3781Z" fill="#428BC1"/>
<path d="M10.6592 9.98436L9.64667 9.30936L8.94354 8.99999L9.56229 9.44999L10.6592 9.98436ZM10.856 9.50624L9.70292 9.14061L8.94354 8.99999L9.67479 9.25312L10.856 9.50624ZM10.9123 8.99999L9.70292 8.91562L8.94354 8.99999L9.70292 9.05624L10.9123 8.99999ZM10.856 8.49374L9.67479 8.74687L8.94354 8.99999L9.70292 8.85936L10.856 8.49374Z" fill="#428BC1"/>
<path d="M10.6592 8.01562L9.56229 8.54999L8.94354 8.99999L9.64667 8.69062L10.6592 8.01562ZM10.3498 7.62187L9.44979 8.40937L8.94354 8.99999L9.53417 8.52187L10.3498 7.62187Z" fill="#428BC1"/>
<path d="M9.92792 7.28437L9.28104 8.32499L8.94354 8.99999L9.39354 8.38124L9.92792 7.28437Z" fill="#428BC1"/>
<path d="M9.47792 7.08749L9.08417 8.24061L8.94354 8.99999L9.22479 8.29686L9.47792 7.08749Z" fill="#428BC1"/>
</g>
<defs>
<clipPath id="clip0_0_63">
<rect width="18" height="18" fill="white"/>
</clipPath>
</defs>
</svg>
