<svg width="16" height="16" viewBox="0 0 16 16" fill="none" xmlns="http://www.w3.org/2000/svg">
<path d="M7.99998 1.33331C6.68144 1.33331 5.39251 1.72431 4.29618 2.45685C3.19985 3.18939 2.34537 4.23058 1.84079 5.44876C1.3362 6.66693 1.20418 8.00738 1.46141 9.30058C1.71865 10.5938 2.35359 11.7817 3.28594 12.714C4.21829 13.6464 5.40617 14.2813 6.69938 14.5386C7.99259 14.7958 9.33303 14.6638 10.5512 14.1592C11.7694 13.6546 12.8106 12.8001 13.5431 11.7038C14.2757 10.6075 14.6667 9.31852 14.6667 7.99998C14.6667 7.1245 14.4942 6.25759 14.1592 5.44876C13.8242 4.63992 13.3331 3.90499 12.714 3.28593C12.095 2.66688 11.36 2.17581 10.5512 1.84078C9.74237 1.50575 8.87546 1.33331 7.99998 1.33331ZM7.99998 13.3333C6.94515 13.3333 5.914 13.0205 5.03694 12.4345C4.15988 11.8485 3.47629 11.0155 3.07263 10.041C2.66896 9.06642 2.56334 7.99406 2.76913 6.9595C2.97492 5.92493 3.48287 4.97462 4.22875 4.22874C4.97463 3.48286 5.92494 2.97491 6.9595 2.76913C7.99407 2.56334 9.06642 2.66896 10.041 3.07262C11.0155 3.47629 11.8485 4.15988 12.4345 5.03694C13.0205 5.914 13.3333 6.94515 13.3333 7.99998C13.3333 9.41447 12.7714 10.771 11.7712 11.7712C10.771 12.7714 9.41447 13.3333 7.99998 13.3333Z" fill="black" fill-opacity="0.5"/>
<path d="M7.99998 6.00002C8.36817 6.00002 8.66665 5.70154 8.66665 5.33335C8.66665 4.96516 8.36817 4.66669 7.99998 4.66669C7.63179 4.66669 7.33331 4.96516 7.33331 5.33335C7.33331 5.70154 7.63179 6.00002 7.99998 6.00002Z" fill="black" fill-opacity="0.5"/>
<path d="M7.99998 6.66669C7.82317 6.66669 7.6536 6.73693 7.52858 6.86195C7.40355 6.98697 7.33331 7.15654 7.33331 7.33335V10.6667C7.33331 10.8435 7.40355 11.0131 7.52858 11.1381C7.6536 11.2631 7.82317 11.3334 7.99998 11.3334C8.17679 11.3334 8.34636 11.2631 8.47138 11.1381C8.59641 11.0131 8.66665 10.8435 8.66665 10.6667V7.33335C8.66665 7.15654 8.59641 6.98697 8.47138 6.86195C8.34636 6.73693 8.17679 6.66669 7.99998 6.66669Z" fill="black" fill-opacity="0.5"/>
</svg>
