<svg width="16" height="17" viewBox="0 0 16 17" fill="none" xmlns="http://www.w3.org/2000/svg">
<path d="M7.99998 2C6.68144 2 5.39251 2.39099 4.29618 3.12354C3.19985 3.85608 2.34537 4.89727 1.84079 6.11544C1.3362 7.33362 1.20418 8.67406 1.46141 9.96727C1.71865 11.2605 2.35359 12.4484 3.28594 13.3807C4.21829 14.3131 5.40617 14.948 6.69938 15.2052C7.99259 15.4625 9.33303 15.3305 10.5512 14.8259C11.7694 14.3213 12.8106 13.4668 13.5431 12.3705C14.2757 11.2741 14.6667 9.98521 14.6667 8.66667C14.6667 7.79119 14.4942 6.92428 14.1592 6.11544C13.8242 5.30661 13.3331 4.57168 12.714 3.95262C12.095 3.33356 11.36 2.8425 10.5512 2.50747C9.74237 2.17244 8.87546 2 7.99998 2ZM7.99998 14C6.94515 14 5.914 13.6872 5.03694 13.1012C4.15988 12.5151 3.47629 11.6822 3.07263 10.7076C2.66896 9.73311 2.56334 8.66075 2.76913 7.62619C2.97492 6.59162 3.48287 5.64131 4.22875 4.89543C4.97463 4.14955 5.92494 3.6416 6.9595 3.43581C7.99407 3.23002 9.06642 3.33564 10.041 3.73931C11.0155 4.14298 11.8485 4.82656 12.4345 5.70363C13.0205 6.58069 13.3333 7.61183 13.3333 8.66667C13.3333 10.0812 12.7714 11.4377 11.7712 12.4379C10.771 13.4381 9.41447 14 7.99998 14Z" fill="black" fill-opacity="0.5"/>
<path d="M7.99998 6.66671C8.36817 6.66671 8.66665 6.36823 8.66665 6.00004C8.66665 5.63185 8.36817 5.33337 7.99998 5.33337C7.63179 5.33337 7.33331 5.63185 7.33331 6.00004C7.33331 6.36823 7.63179 6.66671 7.99998 6.66671Z" fill="black" fill-opacity="0.5"/>
<path d="M7.99998 7.33337C7.82317 7.33337 7.6536 7.40361 7.52858 7.52864C7.40355 7.65366 7.33331 7.82323 7.33331 8.00004V11.3334C7.33331 11.5102 7.40355 11.6798 7.52858 11.8048C7.6536 11.9298 7.82317 12 7.99998 12C8.17679 12 8.34636 11.9298 8.47138 11.8048C8.59641 11.6798 8.66665 11.5102 8.66665 11.3334V8.00004C8.66665 7.82323 8.59641 7.65366 8.47138 7.52864C8.34636 7.40361 8.17679 7.33337 7.99998 7.33337Z" fill="black" fill-opacity="0.5"/>
</svg>
