<svg width="16" height="17" viewBox="0 0 16 17" fill="none" xmlns="http://www.w3.org/2000/svg">
<path d="M7.99998 1.66669C6.68144 1.66669 5.39251 2.05768 4.29618 2.79022C3.19985 3.52277 2.34537 4.56396 1.84079 5.78213C1.3362 7.00031 1.20418 8.34075 1.46141 9.63396C1.71865 10.9272 2.35359 12.1151 3.28594 13.0474C4.21829 13.9798 5.40617 14.6147 6.69938 14.8719C7.99259 15.1292 9.33303 14.9971 10.5512 14.4926C11.7694 13.988 12.8106 13.1335 13.5431 12.0372C14.2757 10.9408 14.6667 9.6519 14.6667 8.33335C14.6667 7.45788 14.4942 6.59097 14.1592 5.78213C13.8242 4.97329 13.3331 4.23837 12.714 3.61931C12.095 3.00025 11.36 2.50919 10.5512 2.17416C9.74237 1.83913 8.87546 1.66669 7.99998 1.66669ZM7.99998 13.6667C6.94515 13.6667 5.914 13.3539 5.03694 12.7679C4.15988 12.1818 3.47629 11.3489 3.07263 10.3743C2.66896 9.39979 2.56334 8.32744 2.76913 7.29287C2.97492 6.25831 3.48287 5.308 4.22875 4.56212C4.97463 3.81624 5.92494 3.30829 6.9595 3.1025C7.99407 2.89671 9.06642 3.00233 10.041 3.406C11.0155 3.80966 11.8485 4.49325 12.4345 5.37031C13.0205 6.24738 13.3333 7.27852 13.3333 8.33335C13.3333 9.74784 12.7714 11.1044 11.7712 12.1046C10.771 13.1048 9.41447 13.6667 7.99998 13.6667Z" fill="black" fill-opacity="0.5"/>
<path d="M7.99998 6.33339C8.36817 6.33339 8.66665 6.03492 8.66665 5.66673C8.66665 5.29854 8.36817 5.00006 7.99998 5.00006C7.63179 5.00006 7.33331 5.29854 7.33331 5.66673C7.33331 6.03492 7.63179 6.33339 7.99998 6.33339Z" fill="black" fill-opacity="0.5"/>
<path d="M7.99998 7.00006C7.82317 7.00006 7.6536 7.0703 7.52858 7.19532C7.40355 7.32035 7.33331 7.48992 7.33331 7.66673V11.0001C7.33331 11.1769 7.40355 11.3464 7.52858 11.4715C7.6536 11.5965 7.82317 11.6667 7.99998 11.6667C8.17679 11.6667 8.34636 11.5965 8.47138 11.4715C8.59641 11.3464 8.66665 11.1769 8.66665 11.0001V7.66673C8.66665 7.48992 8.59641 7.32035 8.47138 7.19532C8.34636 7.0703 8.17679 7.00006 7.99998 7.00006Z" fill="black" fill-opacity="0.5"/>
</svg>
