<svg width="649" height="275" viewBox="0 0 649 275" fill="none" xmlns="http://www.w3.org/2000/svg">
<path d="M1 275L1.00001 9.41753e-06" stroke="#C9CDD4"/>
<path d="M59.8182 275L59.8182 -9.53674e-06" stroke="#E5E6EB" stroke-dasharray="4 4"/>
<path d="M118.636 275L118.636 -9.53674e-06" stroke="#E5E6EB" stroke-dasharray="4 4"/>
<path d="M177.455 275L177.455 -9.53674e-06" stroke="#E5E6EB" stroke-dasharray="4 4"/>
<path d="M236.273 275L236.273 -9.53674e-06" stroke="#E5E6EB" stroke-dasharray="4 4"/>
<path d="M295.091 275L295.091 -9.53674e-06" stroke="#E5E6EB" stroke-dasharray="4 4"/>
<path d="M353.909 275L353.909 -9.53674e-06" stroke="#E5E6EB" stroke-dasharray="4 4"/>
<path d="M412.727 275L412.727 -9.53674e-06" stroke="#E5E6EB" stroke-dasharray="4 4"/>
<path d="M471.545 275L471.545 -9.53674e-06" stroke="#E5E6EB" stroke-dasharray="4 4"/>
<path d="M530.364 275L530.364 -9.53674e-06" stroke="#E5E6EB" stroke-dasharray="4 4"/>
<path d="M589.182 275L589.182 -9.53674e-06" stroke="#E5E6EB" stroke-dasharray="4 4"/>
<path d="M648 275L648 -9.53674e-06" stroke="#E5E6EB" stroke-dasharray="4 4"/>
</svg>
