<svg width="17" height="16" viewBox="0 0 17 16" fill="none" xmlns="http://www.w3.org/2000/svg">
<path d="M17 3.18519V7.33333C17 7.47085 16.936 7.60274 16.8222 7.69998C16.7084 7.79722 16.554 7.85185 16.393 7.85185C16.232 7.85185 16.0776 7.79722 15.9637 7.69998C15.8499 7.60274 15.786 7.47085 15.786 7.33333V4.43611L9.54123 9.77685C9.42614 9.87422 9.27071 9.92884 9.10873 9.92884C8.94675 9.92884 8.79131 9.87422 8.67623 9.77685L6.07362 7.54722L1.04294 11.8509C0.926416 11.9461 0.771624 11.9994 0.610436 12C0.449546 11.9981 0.295284 11.945 0.177933 11.8509C0.0639457 11.7526 0 11.6198 0 11.4815C0 11.3431 0.0639457 11.2103 0.177933 11.112L5.64112 6.44537C5.75621 6.348 5.91164 6.29338 6.07362 6.29338C6.23561 6.29338 6.39104 6.348 6.50613 6.44537L9.10873 8.675L14.9285 3.7037H11.5368C11.3758 3.7037 11.2214 3.64908 11.1076 3.55183C10.9937 3.45459 10.9298 3.32271 10.9298 3.18519C10.9298 3.04767 10.9937 2.91578 11.1076 2.81854C11.2214 2.7213 11.3758 2.66667 11.5368 2.66667H16.393C16.554 2.66667 16.7084 2.7213 16.8222 2.81854C16.936 2.91578 17 3.04767 17 3.18519Z" fill="#49E45F"/>
</svg>
